<?xml version="1.0" encoding="UTF-8"?>
<!DOCTYPE svg PUBLIC "-//W3C//DTD SVG 1.1//EN" "http://www.w3.org/Graphics/SVG/1.1/DTD/svg11.dtd">
<svg xmlns="http://www.w3.org/2000/svg" version="1.1" width="175px" height="130px" style="shape-rendering:geometricPrecision; text-rendering:geometricPrecision; image-rendering:optimizeQuality; fill-rule:evenodd; clip-rule:evenodd" xmlns:xlink="http://www.w3.org/1999/xlink">
<g><path style="opacity:1" fill="#fbfbfb" d="M -0.5,-0.5 C 57.8333,-0.5 116.167,-0.5 174.5,-0.5C 174.5,42.8333 174.5,86.1667 174.5,129.5C 173.167,129.5 171.833,129.5 170.5,129.5C 174.148,122.959 174.314,116.292 171,109.5C 169.846,108.257 168.512,107.257 167,106.5C 167.394,92.5028 167.727,78.5028 168,64.5C 166.624,59.4165 164.457,54.7499 161.5,50.5C 165.547,36.4567 165.38,22.4567 161,8.5C 157.939,2.82061 153.772,1.98727 148.5,6C 142.131,10.5235 136.131,15.5235 130.5,21C 120.718,19.9348 110.885,19.1014 101,18.5C 89.2149,18.4454 77.7149,20.1121 66.5,23.5C 60.6499,17.8157 54.6499,12.3157 48.5,7C 44.2033,4.01808 39.5367,1.85141 34.5,0.5C 32.626,0.389773 31.126,1.05644 30,2.5C 26.704,16.3556 25.704,30.3556 27,44.5C 14.8467,55.4491 6.18005,68.7825 1,84.5C 0.183403,87.9643 0.516736,91.2976 2,94.5C 8.2749,100.783 15.1082,106.283 22.5,111C 18.6167,116.597 16.2834,122.763 15.5,129.5C 10.1667,129.5 4.83333,129.5 -0.5,129.5C -0.5,86.1667 -0.5,42.8333 -0.5,-0.5 Z"/></g>
<g><path style="opacity:1" fill="#040404" d="M 170.5,129.5 C 169.167,129.5 167.833,129.5 166.5,129.5C 169.871,126.762 171.538,123.095 171.5,118.5C 171.111,110.803 167.111,107.636 159.5,109C 156.334,111.802 153.501,114.969 151,118.5C 149.48,115.618 148.147,112.618 147,109.5C 138.586,104.421 131.419,97.9212 125.5,90C 117.785,88.1361 111.118,89.9694 105.5,95.5C 104.438,94.5754 104.438,93.5754 105.5,92.5C 106.043,92.44 106.376,92.1067 106.5,91.5C 101.88,90.5067 97.2137,90.1734 92.5,90.5C 89.7235,87.282 87.7235,83.6153 86.5,79.5C 86.2295,76.298 85.3962,73.298 84,70.5C 83.2832,75.0918 83.7832,79.4252 85.5,83.5C 86.038,85.1172 86.3713,86.7839 86.5,88.5C 75.7593,91.8655 69.2593,87.8655 67,76.5C 66.2585,79.562 66.4252,82.562 67.5,85.5C 70.5178,87.5258 73.5178,89.5258 76.5,91.5C 77.5624,92.5754 77.5624,93.5754 76.5,94.5C 63.9701,85.3544 52.8035,86.6877 43,98.5C 42.3421,94.9748 43.5088,92.1414 46.5,90C 51.0689,87.0514 56.0689,85.2181 61.5,84.5C 61,83.5 60.5,82.5 60,81.5C 59.6667,75.8333 59.3333,70.1667 59,64.5C 50.8458,72.9848 43.8458,82.3181 38,92.5C 36.8032,100.947 39.6365,107.78 46.5,113C 43.9865,114.252 41.3198,114.752 38.5,114.5C 38.44,113.957 38.1067,113.624 37.5,113.5C 36.5052,118.792 36.1718,124.125 36.5,129.5C 32.8333,129.5 29.1667,129.5 25.5,129.5C 25.8275,124.456 25.4941,119.456 24.5,114.5C 23.8933,114.624 23.56,114.957 23.5,115.5C 21.272,119.958 19.6054,124.625 18.5,129.5C 17.5,129.5 16.5,129.5 15.5,129.5C 16.2834,122.763 18.6167,116.597 22.5,111C 15.1082,106.283 8.2749,100.783 2,94.5C 0.516736,91.2976 0.183403,87.9643 1,84.5C 6.18005,68.7825 14.8467,55.4491 27,44.5C 25.704,30.3556 26.704,16.3556 30,2.5C 31.126,1.05644 32.626,0.389773 34.5,0.5C 39.5367,1.85141 44.2033,4.01808 48.5,7C 54.6499,12.3157 60.6499,17.8157 66.5,23.5C 77.7149,20.1121 89.2149,18.4454 101,18.5C 110.885,19.1014 120.718,19.9348 130.5,21C 136.131,15.5235 142.131,10.5235 148.5,6C 153.772,1.98727 157.939,2.82061 161,8.5C 165.38,22.4567 165.547,36.4567 161.5,50.5C 164.457,54.7499 166.624,59.4165 168,64.5C 167.727,78.5028 167.394,92.5028 167,106.5C 168.512,107.257 169.846,108.257 171,109.5C 174.314,116.292 174.148,122.959 170.5,129.5 Z"/></g>
<g><path style="opacity:1" fill="#e9e9e9" d="M 32.5,1.5 C 33.4972,1.47008 34.1639,1.97008 34.5,3C 36.9185,9.697 38.4185,16.5303 39,23.5C 38.3333,22.8333 37.6667,22.1667 37,21.5C 36.5034,23.8098 36.3367,26.1432 36.5,28.5C 31.0566,28.2013 30.3899,29.5346 34.5,32.5C 33.8333,33.5 33.1667,34.5 32.5,35.5C 35.2576,39.117 34.2576,41.117 29.5,41.5C 28.8638,28.0137 29.8638,14.6803 32.5,1.5 Z"/></g>
<g><path style="opacity:1" fill="#e4e4e4" d="M 153.5,42.5 C 154.833,42.5 156.167,42.5 157.5,42.5C 157.247,40.1727 157.914,38.1727 159.5,36.5C 157.604,35.5344 155.604,35.2011 153.5,35.5C 153.519,33.9397 153.852,32.4397 154.5,31C 153.863,29.2874 152.863,29.1207 151.5,30.5C 151.167,29.6667 150.833,28.8333 150.5,28C 151.669,20.1461 153.836,12.6461 157,5.5C 161.913,19.5185 162.746,33.8518 159.5,48.5C 157.097,46.7639 155.097,44.7639 153.5,42.5 Z"/></g>
<g><path style="opacity:1" fill="#e5e5e5" d="M 37.5,24.5 C 41.8851,28.5171 42.2184,32.6838 38.5,37C 37.451,37.4922 36.451,37.3256 35.5,36.5C 35.5207,34.3984 35.1874,32.2317 34.5,30C 35.448,29.5172 36.448,29.3505 37.5,29.5C 37.5,27.8333 37.5,26.1667 37.5,24.5 Z"/></g>
<g><path style="opacity:1" fill="#dfdfdf" d="M 153.5,42.5 C 152.167,42.5 150.833,42.5 149.5,42.5C 149.095,38.9521 149.595,35.6188 151,32.5C 151.492,33.549 151.326,34.549 150.5,35.5C 152.5,36.1667 154.5,36.8333 156.5,37.5C 155.237,39.0287 154.237,40.6954 153.5,42.5 Z"/></g>
<g><path style="opacity:1" fill="#ededed" d="M 27.5,46.5 C 28.5,46.5 29.5,46.5 30.5,46.5C 30.0507,50.3493 28.7174,53.8493 26.5,57C 27.9529,58.7827 28.9529,60.7827 29.5,63C 28.4282,68.4587 27.2616,68.6253 26,63.5C 21.9812,62.3356 18.4812,63.3356 15.5,66.5C 15.1667,66 14.8333,65.5 14.5,65C 17.7301,58.0331 22.0635,51.8664 27.5,46.5 Z"/></g>
<g><path style="opacity:1" fill="#e2e2e2" d="M 76.5,51.5 C 77.5,51.5 78.5,51.5 79.5,51.5C 79.8098,55.5397 78.4764,58.873 75.5,61.5C 74.1465,57.9795 74.4798,54.6462 76.5,51.5 Z"/></g>
<g><path style="opacity:1" fill="#eaeaea" d="M 81.5,52.5 C 82.5,52.5 83.5,52.5 84.5,52.5C 84.6641,55.1873 84.4974,57.854 84,60.5C 81.355,61.7084 80.1884,60.7084 80.5,57.5C 80.7284,55.7927 81.0617,54.126 81.5,52.5 Z"/></g>
<g><path style="opacity:1" fill="#dfdfdf" d="M 37.5,57.5 C 38.5,57.5 39.5,57.5 40.5,57.5C 40.909,61.6205 39.5757,64.9538 36.5,67.5C 35.1465,63.9795 35.4798,60.6462 37.5,57.5 Z"/></g>
<g><path style="opacity:1" fill="#e5e5e5" d="M 159.5,58.5 C 160.978,58.238 162.311,58.5713 163.5,59.5C 166.269,66.5956 167.103,73.9289 166,81.5C 165,82.8333 164,82.8333 163,81.5C 162.667,79.5 162.333,77.5 162,75.5C 161.716,77.8856 160.716,78.5523 159,77.5C 158.833,75 158.667,72.5 158.5,70C 158.568,67.05 159.234,64.3834 160.5,62C 159.663,60.9887 159.33,59.8221 159.5,58.5 Z"/></g>
<g><path style="opacity:1" fill="#dcdcdc" d="M 149.5,63.5 C 150.75,63.5774 151.583,64.244 152,65.5C 153.138,69.4305 152.305,72.7638 149.5,75.5C 147.914,73.8273 147.247,71.8273 147.5,69.5C 144.15,69.665 140.817,69.4983 137.5,69C 141.529,66.8683 145.529,65.035 149.5,63.5 Z"/></g>
<g><path style="opacity:1" fill="#f6f6f6" d="M 76.5,91.5 C 80.0208,90.8337 83.6875,90.1671 87.5,89.5C 87.3764,88.8933 87.0431,88.56 86.5,88.5C 86.3713,86.7839 86.038,85.1172 85.5,83.5C 85.2322,81.901 85.5655,80.5676 86.5,79.5C 87.7235,83.6153 89.7235,87.282 92.5,90.5C 96.8333,91.1667 101.167,91.8333 105.5,92.5C 104.438,93.5754 104.438,94.5754 105.5,95.5C 111.118,89.9694 117.785,88.1361 125.5,90C 131.419,97.9212 138.586,104.421 147,109.5C 148.147,112.618 149.48,115.618 151,118.5C 153.501,114.969 156.334,111.802 159.5,109C 167.111,107.636 171.111,110.803 171.5,118.5C 171.538,123.095 169.871,126.762 166.5,129.5C 163.833,129.5 161.167,129.5 158.5,129.5C 158.334,125.486 158.501,121.486 159,117.5C 160.789,115.771 162.956,115.104 165.5,115.5C 165.201,117.604 165.534,119.604 166.5,121.5C 170.154,115.95 168.654,112.95 162,112.5C 158.718,113.115 156.718,115.115 156,118.5C 155.501,122.152 155.335,125.818 155.5,129.5C 149.167,129.5 142.833,129.5 136.5,129.5C 137.292,128.033 137.292,126.7 136.5,125.5C 134.812,126.521 133.479,127.855 132.5,129.5C 130.5,129.5 128.5,129.5 126.5,129.5C 127.477,125.764 126.81,125.764 124.5,129.5C 122.167,129.5 119.833,129.5 117.5,129.5C 118.061,126.813 117.394,126.813 115.5,129.5C 113.833,129.5 112.167,129.5 110.5,129.5C 111.363,127.579 112.029,125.579 112.5,123.5C 110.367,125.091 108.701,127.091 107.5,129.5C 94.5,129.5 81.5,129.5 68.5,129.5C 69.0522,127.669 69.0522,126.003 68.5,124.5C 67.0499,125.85 66.3832,127.516 66.5,129.5C 63.8333,129.5 61.1667,129.5 58.5,129.5C 59.5546,124.389 58.888,124.389 56.5,129.5C 54.1667,129.5 51.8333,129.5 49.5,129.5C 50.2071,127.219 51.2071,125.052 52.5,123C 57.4494,123.492 62.4494,123.492 67.5,123C 69.0441,122.71 70.3774,122.044 71.5,121C 63.649,122.206 55.9823,121.373 48.5,118.5C 48.1667,118.667 47.8333,118.833 47.5,119C 48.8333,120 50.1667,121 51.5,122C 49.5056,124.158 48.1723,126.658 47.5,129.5C 44.1667,129.5 40.8333,129.5 37.5,129.5C 37.1795,124.305 37.5128,119.305 38.5,114.5C 41.3198,114.752 43.9865,114.252 46.5,113C 39.6365,107.78 36.8032,100.947 38,92.5C 43.8458,82.3181 50.8458,72.9848 59,64.5C 59.3333,70.1667 59.6667,75.8333 60,81.5C 60.5,82.5 61,83.5 61.5,84.5C 56.0689,85.2181 51.0689,87.0514 46.5,90C 43.5088,92.1414 42.3421,94.9748 43,98.5C 52.8035,86.6877 63.9701,85.3544 76.5,94.5C 77.5624,93.5754 77.5624,92.5754 76.5,91.5 Z"/></g>
<g><path style="opacity:1" fill="#a5a5a5" d="M 86.5,79.5 C 85.5655,80.5676 85.2322,81.901 85.5,83.5C 83.7832,79.4252 83.2832,75.0918 84,70.5C 85.3962,73.298 86.2295,76.298 86.5,79.5 Z"/></g>
<g><path style="opacity:1" fill="#c3c3c3" d="M 86.5,88.5 C 87.0431,88.56 87.3764,88.8933 87.5,89.5C 83.6875,90.1671 80.0208,90.8337 76.5,91.5C 73.5178,89.5258 70.5178,87.5258 67.5,85.5C 66.4252,82.562 66.2585,79.562 67,76.5C 69.2593,87.8655 75.7593,91.8655 86.5,88.5 Z"/></g>
<g><path style="opacity:1" fill="#d8d8d8" d="M 117.5,73.5 C 119.453,76.1411 120.953,79.1411 122,82.5C 121.834,86.3071 120.834,86.3071 119,82.5C 118.304,79.5219 117.804,76.5219 117.5,73.5 Z"/></g>
<g><path style="opacity:1" fill="#767676" d="M 92.5,90.5 C 97.2137,90.1734 101.88,90.5067 106.5,91.5C 106.376,92.1067 106.043,92.44 105.5,92.5C 101.167,91.8333 96.8333,91.1667 92.5,90.5 Z"/></g>
<g><path style="opacity:1" fill="#151515" d="M 115.5,94.5 C 127.692,94.2548 132.192,99.9214 129,111.5C 123.408,118.987 117.408,119.32 111,112.5C 107.977,105.294 109.477,99.2939 115.5,94.5 Z"/></g>
<g><path style="opacity:1" fill="#f1f1f1" d="M 119.5,98.5 C 121.641,101.472 124.308,103.972 127.5,106C 123.942,107.892 121.442,110.725 120,114.5C 118.5,110.333 115.667,107.5 111.5,106C 115.279,104.623 117.946,102.123 119.5,98.5 Z"/></g>
<g><path style="opacity:1" fill="#101010" d="M 60.5,93.5 C 70.8647,94.9207 74.698,100.587 72,110.5C 67.3854,117.203 61.7187,118.203 55,113.5C 50.3828,104.878 52.2161,98.211 60.5,93.5 Z"/></g>
<g><path style="opacity:1" fill="#eeeeee" d="M 61.5,97.5 C 63.6186,98.7912 65.2853,100.625 66.5,103C 73.1667,104.667 73.1667,106.333 66.5,108C 65.0443,109.745 63.711,111.578 62.5,113.5C 60.8406,109.841 58.1739,107.174 54.5,105.5C 58.3213,104.019 60.6546,101.353 61.5,97.5 Z"/></g>
<g><path style="opacity:1" fill="#252525" d="M 158.5,129.5 C 157.5,129.5 156.5,129.5 155.5,129.5C 155.335,125.818 155.501,122.152 156,118.5C 156.718,115.115 158.718,113.115 162,112.5C 168.654,112.95 170.154,115.95 166.5,121.5C 165.534,119.604 165.201,117.604 165.5,115.5C 162.956,115.104 160.789,115.771 159,117.5C 158.501,121.486 158.334,125.486 158.5,129.5 Z"/></g>
<g><path style="opacity:1" fill="#ababab" d="M 38.5,114.5 C 37.5128,119.305 37.1795,124.305 37.5,129.5C 37.1667,129.5 36.8333,129.5 36.5,129.5C 36.1718,124.125 36.5052,118.792 37.5,113.5C 38.1067,113.624 38.44,113.957 38.5,114.5 Z"/></g>
<g><path style="opacity:1" fill="#ededed" d="M 23.5,115.5 C 24.4861,119.97 24.8195,124.637 24.5,129.5C 22.5,129.5 20.5,129.5 18.5,129.5C 19.6054,124.625 21.272,119.958 23.5,115.5 Z"/></g>
<g><path style="opacity:1" fill="#1f1f1f" d="M 49.5,129.5 C 48.8333,129.5 48.1667,129.5 47.5,129.5C 48.1723,126.658 49.5056,124.158 51.5,122C 50.1667,121 48.8333,120 47.5,119C 47.8333,118.833 48.1667,118.667 48.5,118.5C 55.9823,121.373 63.649,122.206 71.5,121C 70.3774,122.044 69.0441,122.71 67.5,123C 62.4494,123.492 57.4494,123.492 52.5,123C 51.2071,125.052 50.2071,127.219 49.5,129.5 Z"/></g>
<g><path style="opacity:1" fill="#5b5b5b" d="M 23.5,115.5 C 23.56,114.957 23.8933,114.624 24.5,114.5C 25.4941,119.456 25.8275,124.456 25.5,129.5C 25.1667,129.5 24.8333,129.5 24.5,129.5C 24.8195,124.637 24.4861,119.97 23.5,115.5 Z"/></g>
<g><path style="opacity:1" fill="#181818" d="M 112.5,123.5 C 112.389,122.883 112.056,122.383 111.5,122C 119.73,121.847 127.73,120.847 135.5,119C 132.785,120.908 129.785,122.241 126.5,123C 121.845,123.499 117.179,123.666 112.5,123.5 Z"/></g>
<g><path style="opacity:1" fill="#060606" d="M 44.5,121.5 C 45.6289,123.666 45.1289,125.666 43,127.5C 43.1503,125.494 43.6503,123.494 44.5,121.5 Z"/></g>
<g><path style="opacity:1" fill="#252525" d="M 68.5,129.5 C 67.8333,129.5 67.1667,129.5 66.5,129.5C 66.3832,127.516 67.0499,125.85 68.5,124.5C 69.0522,126.003 69.0522,127.669 68.5,129.5 Z"/></g>
<g><path style="opacity:1" fill="#202020" d="M 112.5,123.5 C 112.029,125.579 111.363,127.579 110.5,129.5C 109.5,129.5 108.5,129.5 107.5,129.5C 108.701,127.091 110.367,125.091 112.5,123.5 Z"/></g>
<g><path style="opacity:1" fill="#272727" d="M 58.5,129.5 C 57.8333,129.5 57.1667,129.5 56.5,129.5C 58.888,124.389 59.5546,124.389 58.5,129.5 Z"/></g>
<g><path style="opacity:1" fill="#1d1d1d" d="M 136.5,129.5 C 135.167,129.5 133.833,129.5 132.5,129.5C 133.479,127.855 134.812,126.521 136.5,125.5C 137.292,126.7 137.292,128.033 136.5,129.5 Z"/></g>
<g><path style="opacity:1" fill="#161616" d="M 117.5,129.5 C 116.833,129.5 116.167,129.5 115.5,129.5C 117.394,126.813 118.061,126.813 117.5,129.5 Z"/></g>
<g><path style="opacity:1" fill="#151515" d="M 126.5,129.5 C 125.833,129.5 125.167,129.5 124.5,129.5C 126.81,125.764 127.477,125.764 126.5,129.5 Z"/></g>
</svg>
